<svg width="142" height="149" viewBox="0 0 142 149" fill="none" xmlns="http://www.w3.org/2000/svg">
<rect x="36" y="43" width="100" height="100" rx="28" fill="white" fill-opacity="0.2"/>
<path d="M57 36.5H122C132.77 36.5 141.5 45.2304 141.5 56V121C141.5 136.188 129.188 148.5 114 148.5H57C41.8122 148.5 29.5 136.188 29.5 121V64C29.5 48.8122 41.8122 36.5 57 36.5Z" stroke="white" stroke-opacity="0.2"/>
<rect x="5.32745" y="5.32742" width="76.1062" height="76.1062" rx="28" fill="white" fill-opacity="0.4"/>
<path d="M28 0.5H66C76.7696 0.5 85.5 9.23045 85.5 20V58C85.5 73.1878 73.1878 85.5 58 85.5H28C12.8122 85.5 0.5 73.1878 0.5 58V28C0.5 12.8122 12.8122 0.5 28 0.5Z" stroke="white" stroke-opacity="0.2"/>
<path d="M52.25 54.1667C64.9065 54.1667 75.1666 50.4357 75.1666 45.8333C75.1666 41.231 64.9065 37.5 52.25 37.5C39.5935 37.5 29.3333 41.231 29.3333 45.8333C29.3333 50.4357 39.5935 54.1667 52.25 54.1667Z" fill="#FFC700" fill-opacity="0.2"/>
<path d="M89.75 79.1667C102.407 79.1667 112.667 75.4357 112.667 70.8333C112.667 66.231 102.407 62.5 89.75 62.5C77.0935 62.5 66.8333 66.231 66.8333 70.8333C66.8333 75.4357 77.0935 79.1667 89.75 79.1667Z" fill="#FFC700" fill-opacity="0.2"/>
<path d="M66.8333 70.8333C66.8333 66.231 77.0935 62.5 89.75 62.5C102.407 62.5 112.667 66.231 112.667 70.8333V104.167C112.667 108.769 102.407 112.5 89.75 112.5C77.0935 112.5 66.8333 108.769 66.8333 104.167V70.8333Z" fill="#FFC700" fill-opacity="0.2"/>
<path d="M52.25 37.5C39.5935 37.5 29.3333 41.231 29.3333 45.8333V95.8333C29.3333 100.436 39.5935 104.167 52.25 104.167C57.7901 104.167 62.8711 103.452 66.8333 102.262V70.8333C66.8333 68.2455 70.077 65.9333 75.1666 64.4048V45.8333C75.1666 41.231 64.9065 37.5 52.25 37.5Z" fill="#FFC700" fill-opacity="0.2"/>
<path d="M75.1666 45.8333C75.1666 50.4357 64.9065 54.1667 52.25 54.1667C39.5935 54.1667 29.3333 50.4357 29.3333 45.8333M75.1666 45.8333C75.1666 41.231 64.9065 37.5 52.25 37.5C39.5935 37.5 29.3333 41.231 29.3333 45.8333M75.1666 45.8333V64.4048C70.077 65.9333 66.8333 68.2455 66.8333 70.8333M29.3333 45.8333V95.8333C29.3333 100.436 39.5935 104.167 52.25 104.167C57.7901 104.167 62.8711 103.452 66.8333 102.262V70.8333M29.3333 62.5C29.3333 67.1024 39.5935 70.8333 52.25 70.8333C57.7901 70.8333 62.8711 70.1185 66.8333 68.9285M29.3333 79.1667C29.3333 83.769 39.5935 87.5 52.25 87.5C57.7901 87.5 62.8711 86.7851 66.8333 85.5952M112.667 70.8333C112.667 75.4357 102.407 79.1667 89.75 79.1667C77.0935 79.1667 66.8333 75.4357 66.8333 70.8333M112.667 70.8333C112.667 66.231 102.407 62.5 89.75 62.5C77.0935 62.5 66.8333 66.231 66.8333 70.8333M112.667 70.8333V104.167C112.667 108.769 102.407 112.5 89.75 112.5C77.0935 112.5 66.8333 108.769 66.8333 104.167V70.8333M112.667 87.5C112.667 92.1024 102.407 95.8333 89.75 95.8333C77.0935 95.8333 66.8333 92.1024 66.8333 87.5" stroke="#FFC700" stroke-width="5" stroke-linecap="round" stroke-linejoin="round"/>
</svg>
