<svg width="142" height="149" viewBox="0 0 142 149" fill="none" xmlns="http://www.w3.org/2000/svg">
<rect x="36" y="43" width="100" height="100" rx="28" fill="white" fill-opacity="0.2"/>
<path d="M29.5 64C29.5 48.8122 41.8122 36.5 57 36.5H122C132.77 36.5 141.5 45.2304 141.5 56V121C141.5 136.188 129.188 148.5 114 148.5H57C41.8122 148.5 29.5 136.188 29.5 121V64Z" stroke="white" stroke-opacity="0.2"/>
<rect x="5.32745" y="5.32743" width="76.1062" height="76.1062" rx="28" fill="white" fill-opacity="0.4"/>
<path d="M0.5 28C0.5 12.8122 12.8122 0.5 28 0.5H66C76.7695 0.5 85.5 9.23045 85.5 20V58C85.5 73.1878 73.1878 85.5 58 85.5H28C12.8122 85.5 0.5 73.1878 0.5 58V28Z" stroke="white" stroke-opacity="0.2"/>
<path d="M71 116.667C94.0118 116.667 112.667 98.0119 112.667 75C112.667 51.9881 94.0118 33.3333 71 33.3333C47.9881 33.3333 29.3333 51.9881 29.3333 75C29.3333 98.0119 47.9881 116.667 71 116.667Z" fill="#FFC700" fill-opacity="0.2"/>
<path d="M71 50V75L87.6666 83.3333" fill="#FFC700" fill-opacity="0.2"/>
<path d="M71 50V75L87.6666 83.3333M112.667 75C112.667 98.0119 94.0118 116.667 71 116.667C47.9881 116.667 29.3333 98.0119 29.3333 75C29.3333 51.9881 47.9881 33.3333 71 33.3333C94.0118 33.3333 112.667 51.9881 112.667 75Z" stroke="#FFC700" stroke-width="5" stroke-linecap="round" stroke-linejoin="round"/>
</svg>
