<svg width="142" height="149" viewBox="0 0 142 149" fill="none" xmlns="http://www.w3.org/2000/svg">
<rect x="36" y="43" width="100" height="100" rx="28" fill="white" fill-opacity="0.2"/>
<path d="M57 36.5H122C132.77 36.5 141.5 45.2304 141.5 56V121C141.5 136.188 129.188 148.5 114 148.5H57C41.8122 148.5 29.5 136.188 29.5 121V64C29.5 48.8122 41.8122 36.5 57 36.5Z" stroke="white" stroke-opacity="0.2"/>
<rect x="5.32745" y="5.32745" width="76.1062" height="76.1062" rx="28" fill="white" fill-opacity="0.4"/>
<path d="M28 0.5H66C76.7696 0.5 85.5 9.23045 85.5 20V58C85.5 73.1878 73.1878 85.5 58 85.5H28C12.8122 85.5 0.5 73.1878 0.5 58V28C0.5 12.8122 12.8122 0.5 28 0.5Z" stroke="white" stroke-opacity="0.2"/>
<path d="M95.1667 112.5C99.8338 112.5 102.167 112.5 103.95 111.592C105.518 110.793 106.793 109.518 107.592 107.95C108.5 106.167 108.5 103.834 108.5 99.1667V71.6667C108.5 66.9996 108.5 64.666 107.592 62.8834C106.793 61.3154 105.518 60.0406 103.95 59.2416C102.167 58.3334 99.8338 58.3334 95.1667 58.3334L46.8333 58.3333C42.1662 58.3333 39.8327 58.3333 38.0501 59.2416C36.4821 60.0406 35.2072 61.3154 34.4083 62.8834C33.5 64.666 33.5 66.9996 33.5 71.6667L33.5 99.1667C33.5 103.834 33.5 106.167 34.4083 107.95C35.2072 109.518 36.4821 110.793 38.0501 111.592C39.8327 112.5 42.1662 112.5 46.8333 112.5H95.1667Z" fill="#FFC700" fill-opacity="0.2"/>
<path d="M91.8333 85.4167C91.8333 86.5673 90.9006 87.5 89.75 87.5C88.5994 87.5 87.6667 86.5673 87.6667 85.4167C87.6667 84.2661 88.5994 83.3333 89.75 83.3333C90.9006 83.3333 91.8333 84.2661 91.8333 85.4167Z" fill="#FFC700" fill-opacity="0.2"/>
<path d="M87.6667 58.3334V43.7527C87.6667 40.2872 87.6667 38.5544 86.9366 37.4895C86.2988 36.5591 85.311 35.9271 84.199 35.7379C82.9262 35.5213 81.3529 36.2474 78.2063 37.6997L41.2459 54.7583C38.4396 56.0535 37.0365 56.7011 36.0088 57.7055C35.1002 58.5934 34.4067 59.6773 33.9813 60.8743C33.5 62.2283 33.5 63.7737 33.5 66.8644V87.5M89.75 85.4167H89.7917M33.5 71.6667L33.5 99.1667C33.5 103.834 33.5 106.167 34.4083 107.95C35.2072 109.518 36.4821 110.793 38.0501 111.592C39.8327 112.5 42.1662 112.5 46.8333 112.5H95.1667C99.8338 112.5 102.167 112.5 103.95 111.592C105.518 110.793 106.793 109.518 107.592 107.95C108.5 106.167 108.5 103.834 108.5 99.1667V71.6667C108.5 66.9996 108.5 64.666 107.592 62.8834C106.793 61.3154 105.518 60.0406 103.95 59.2416C102.167 58.3334 99.8338 58.3334 95.1667 58.3334L46.8333 58.3333C42.1662 58.3333 39.8327 58.3333 38.0501 59.2416C36.4821 60.0406 35.2072 61.3154 34.4083 62.8834C33.5 64.666 33.5 66.9996 33.5 71.6667ZM91.8333 85.4167C91.8333 86.5673 90.9006 87.5 89.75 87.5C88.5994 87.5 87.6667 86.5673 87.6667 85.4167C87.6667 84.2661 88.5994 83.3333 89.75 83.3333C90.9006 83.3333 91.8333 84.2661 91.8333 85.4167Z" stroke="#FFC700" stroke-width="5" stroke-linecap="round" stroke-linejoin="round"/>
</svg>
